<mxfile host="app.diagrams.net" agent="Mozilla/5.0 (Windows NT 10.0; Win64; x64) AppleWebKit/537.36 (KHTML, like Gecko) Chrome/126.0.0.0 Safari/537.36" version="24.7.6" pages="2">
  <diagram name="Caso de uso" id="WD-fC5odFZIu3sasPVaM">
    <mxGraphModel dx="880" dy="426" grid="1" gridSize="10" guides="1" tooltips="1" connect="1" arrows="1" fold="1" page="1" pageScale="1" pageWidth="827" pageHeight="1169" math="0" shadow="0">
      <root>
        <mxCell id="0" />
        <mxCell id="1" parent="0" />
        <mxCell id="oMleaZPc2RH-HyhwXufs-4" style="edgeStyle=orthogonalEdgeStyle;rounded=0;orthogonalLoop=1;jettySize=auto;html=1;entryX=0;entryY=0.5;entryDx=0;entryDy=0;" edge="1" parent="1" source="oMleaZPc2RH-HyhwXufs-1" target="oMleaZPc2RH-HyhwXufs-3">
          <mxGeometry relative="1" as="geometry" />
        </mxCell>
        <mxCell id="oMleaZPc2RH-HyhwXufs-1" value="TV" style="shape=umlActor;verticalLabelPosition=bottom;verticalAlign=top;html=1;" vertex="1" parent="1">
          <mxGeometry x="60" y="180" width="30" height="60" as="geometry" />
        </mxCell>
        <mxCell id="oMleaZPc2RH-HyhwXufs-3" value="Acessar anuncios do seu local" style="ellipse;whiteSpace=wrap;html=1;" vertex="1" parent="1">
          <mxGeometry x="170" y="100" width="140" height="70" as="geometry" />
        </mxCell>
        <mxCell id="oMleaZPc2RH-HyhwXufs-7" style="edgeStyle=orthogonalEdgeStyle;rounded=0;orthogonalLoop=1;jettySize=auto;html=1;entryX=0;entryY=0.5;entryDx=0;entryDy=0;" edge="1" parent="1" source="oMleaZPc2RH-HyhwXufs-5" target="oMleaZPc2RH-HyhwXufs-6">
          <mxGeometry relative="1" as="geometry" />
        </mxCell>
        <mxCell id="oMleaZPc2RH-HyhwXufs-5" value="Dono do local" style="shape=umlActor;verticalLabelPosition=bottom;verticalAlign=top;html=1;" vertex="1" parent="1">
          <mxGeometry x="60" y="290" width="30" height="60" as="geometry" />
        </mxCell>
        <mxCell id="oMleaZPc2RH-HyhwXufs-6" value="Anunciar nos lembretes" style="ellipse;whiteSpace=wrap;html=1;" vertex="1" parent="1">
          <mxGeometry x="190" y="240" width="140" height="70" as="geometry" />
        </mxCell>
        <mxCell id="oMleaZPc2RH-HyhwXufs-10" style="edgeStyle=orthogonalEdgeStyle;rounded=0;orthogonalLoop=1;jettySize=auto;html=1;entryX=1;entryY=0.5;entryDx=0;entryDy=0;" edge="1" parent="1" source="oMleaZPc2RH-HyhwXufs-8" target="oMleaZPc2RH-HyhwXufs-9">
          <mxGeometry relative="1" as="geometry" />
        </mxCell>
        <mxCell id="oMleaZPc2RH-HyhwXufs-8" value="Anunciante regional&lt;div&gt;&lt;br&gt;&lt;/div&gt;" style="shape=umlActor;verticalLabelPosition=bottom;verticalAlign=top;html=1;" vertex="1" parent="1">
          <mxGeometry x="730" y="105" width="30" height="60" as="geometry" />
        </mxCell>
        <mxCell id="oMleaZPc2RH-HyhwXufs-9" value="Criar os anuncios da zona da região" style="ellipse;whiteSpace=wrap;html=1;" vertex="1" parent="1">
          <mxGeometry x="490" y="80" width="140" height="70" as="geometry" />
        </mxCell>
        <mxCell id="oMleaZPc2RH-HyhwXufs-15" style="edgeStyle=orthogonalEdgeStyle;rounded=0;orthogonalLoop=1;jettySize=auto;html=1;" edge="1" parent="1" source="oMleaZPc2RH-HyhwXufs-11" target="oMleaZPc2RH-HyhwXufs-14">
          <mxGeometry relative="1" as="geometry" />
        </mxCell>
        <mxCell id="oMleaZPc2RH-HyhwXufs-19" style="edgeStyle=orthogonalEdgeStyle;rounded=0;orthogonalLoop=1;jettySize=auto;html=1;entryX=1;entryY=0.5;entryDx=0;entryDy=0;" edge="1" parent="1" source="oMleaZPc2RH-HyhwXufs-11" target="oMleaZPc2RH-HyhwXufs-18">
          <mxGeometry relative="1" as="geometry">
            <Array as="points">
              <mxPoint x="670" y="300" />
              <mxPoint x="670" y="465" />
            </Array>
          </mxGeometry>
        </mxCell>
        <mxCell id="oMleaZPc2RH-HyhwXufs-11" value="Administrador de sistemas" style="shape=umlActor;verticalLabelPosition=bottom;verticalAlign=top;html=1;" vertex="1" parent="1">
          <mxGeometry x="730" y="270" width="30" height="60" as="geometry" />
        </mxCell>
        <mxCell id="oMleaZPc2RH-HyhwXufs-14" value="Gerenciar anuncios por região" style="ellipse;whiteSpace=wrap;html=1;" vertex="1" parent="1">
          <mxGeometry x="470" y="220" width="140" height="70" as="geometry" />
        </mxCell>
        <mxCell id="oMleaZPc2RH-HyhwXufs-16" value="Verificar logs de atualizações de tv" style="ellipse;whiteSpace=wrap;html=1;" vertex="1" parent="1">
          <mxGeometry x="470" y="320" width="140" height="70" as="geometry" />
        </mxCell>
        <mxCell id="oMleaZPc2RH-HyhwXufs-17" style="edgeStyle=orthogonalEdgeStyle;rounded=0;orthogonalLoop=1;jettySize=auto;html=1;entryX=1.014;entryY=0.6;entryDx=0;entryDy=0;entryPerimeter=0;" edge="1" parent="1" source="oMleaZPc2RH-HyhwXufs-11" target="oMleaZPc2RH-HyhwXufs-16">
          <mxGeometry relative="1" as="geometry" />
        </mxCell>
        <mxCell id="oMleaZPc2RH-HyhwXufs-18" value="Criação de usuários" style="ellipse;whiteSpace=wrap;html=1;" vertex="1" parent="1">
          <mxGeometry x="480" y="430" width="140" height="70" as="geometry" />
        </mxCell>
        <mxCell id="oMleaZPc2RH-HyhwXufs-20" value="Visualizar valores dos anuncios" style="ellipse;whiteSpace=wrap;html=1;" vertex="1" parent="1">
          <mxGeometry x="700" width="140" height="70" as="geometry" />
        </mxCell>
        <mxCell id="oMleaZPc2RH-HyhwXufs-21" style="edgeStyle=orthogonalEdgeStyle;rounded=0;orthogonalLoop=1;jettySize=auto;html=1;entryX=0.571;entryY=1.029;entryDx=0;entryDy=0;entryPerimeter=0;" edge="1" parent="1" source="oMleaZPc2RH-HyhwXufs-8" target="oMleaZPc2RH-HyhwXufs-20">
          <mxGeometry relative="1" as="geometry" />
        </mxCell>
      </root>
    </mxGraphModel>
  </diagram>
  <diagram id="65lJOUR5Sqnhp0tYy36S" name="Diagrama de classe">
    <mxGraphModel dx="1257" dy="609" grid="1" gridSize="10" guides="1" tooltips="1" connect="1" arrows="1" fold="1" page="1" pageScale="1" pageWidth="827" pageHeight="1169" math="0" shadow="0">
      <root>
        <mxCell id="0" />
        <mxCell id="1" parent="0" />
        <mxCell id="tl-FsIim3-14UyTXCoPh-1" value="Usuários" style="swimlane;fontStyle=0;childLayout=stackLayout;horizontal=1;startSize=26;fillColor=none;horizontalStack=0;resizeParent=1;resizeParentMax=0;resizeLast=0;collapsible=1;marginBottom=0;whiteSpace=wrap;html=1;" vertex="1" parent="1">
          <mxGeometry x="560" y="450" width="140" height="130" as="geometry" />
        </mxCell>
        <mxCell id="tl-FsIim3-14UyTXCoPh-2" value="ID: Long" style="text;strokeColor=none;fillColor=none;align=left;verticalAlign=top;spacingLeft=4;spacingRight=4;overflow=hidden;rotatable=0;points=[[0,0.5],[1,0.5]];portConstraint=eastwest;whiteSpace=wrap;html=1;" vertex="1" parent="tl-FsIim3-14UyTXCoPh-1">
          <mxGeometry y="26" width="140" height="26" as="geometry" />
        </mxCell>
        <mxCell id="tl-FsIim3-14UyTXCoPh-3" value="nome: string&lt;span style=&quot;white-space: pre;&quot;&gt;&#x9;&lt;/span&gt;" style="text;strokeColor=none;fillColor=none;align=left;verticalAlign=top;spacingLeft=4;spacingRight=4;overflow=hidden;rotatable=0;points=[[0,0.5],[1,0.5]];portConstraint=eastwest;whiteSpace=wrap;html=1;" vertex="1" parent="tl-FsIim3-14UyTXCoPh-1">
          <mxGeometry y="52" width="140" height="26" as="geometry" />
        </mxCell>
        <mxCell id="tl-FsIim3-14UyTXCoPh-4" value="cpfcnpj: string" style="text;strokeColor=none;fillColor=none;align=left;verticalAlign=top;spacingLeft=4;spacingRight=4;overflow=hidden;rotatable=0;points=[[0,0.5],[1,0.5]];portConstraint=eastwest;whiteSpace=wrap;html=1;" vertex="1" parent="tl-FsIim3-14UyTXCoPh-1">
          <mxGeometry y="78" width="140" height="26" as="geometry" />
        </mxCell>
        <mxCell id="tl-FsIim3-14UyTXCoPh-5" value="senha:string" style="text;strokeColor=none;fillColor=none;align=left;verticalAlign=top;spacingLeft=4;spacingRight=4;overflow=hidden;rotatable=0;points=[[0,0.5],[1,0.5]];portConstraint=eastwest;whiteSpace=wrap;html=1;" vertex="1" parent="tl-FsIim3-14UyTXCoPh-1">
          <mxGeometry y="104" width="140" height="26" as="geometry" />
        </mxCell>
        <mxCell id="tl-FsIim3-14UyTXCoPh-6" value="Endereco" style="swimlane;fontStyle=0;childLayout=stackLayout;horizontal=1;startSize=26;fillColor=none;horizontalStack=0;resizeParent=1;resizeParentMax=0;resizeLast=0;collapsible=1;marginBottom=0;whiteSpace=wrap;html=1;" vertex="1" parent="1">
          <mxGeometry x="560" y="160" width="140" height="182" as="geometry" />
        </mxCell>
        <mxCell id="tl-FsIim3-14UyTXCoPh-7" value="id:long" style="text;strokeColor=none;fillColor=none;align=left;verticalAlign=top;spacingLeft=4;spacingRight=4;overflow=hidden;rotatable=0;points=[[0,0.5],[1,0.5]];portConstraint=eastwest;whiteSpace=wrap;html=1;" vertex="1" parent="tl-FsIim3-14UyTXCoPh-6">
          <mxGeometry y="26" width="140" height="26" as="geometry" />
        </mxCell>
        <mxCell id="tl-FsIim3-14UyTXCoPh-8" value="Rua: string" style="text;strokeColor=none;fillColor=none;align=left;verticalAlign=top;spacingLeft=4;spacingRight=4;overflow=hidden;rotatable=0;points=[[0,0.5],[1,0.5]];portConstraint=eastwest;whiteSpace=wrap;html=1;" vertex="1" parent="tl-FsIim3-14UyTXCoPh-6">
          <mxGeometry y="52" width="140" height="26" as="geometry" />
        </mxCell>
        <mxCell id="tl-FsIim3-14UyTXCoPh-9" value="Numero: int" style="text;strokeColor=none;fillColor=none;align=left;verticalAlign=top;spacingLeft=4;spacingRight=4;overflow=hidden;rotatable=0;points=[[0,0.5],[1,0.5]];portConstraint=eastwest;whiteSpace=wrap;html=1;" vertex="1" parent="tl-FsIim3-14UyTXCoPh-6">
          <mxGeometry y="78" width="140" height="26" as="geometry" />
        </mxCell>
        <mxCell id="tl-FsIim3-14UyTXCoPh-10" value="complemento:string" style="text;strokeColor=none;fillColor=none;align=left;verticalAlign=top;spacingLeft=4;spacingRight=4;overflow=hidden;rotatable=0;points=[[0,0.5],[1,0.5]];portConstraint=eastwest;whiteSpace=wrap;html=1;" vertex="1" parent="tl-FsIim3-14UyTXCoPh-6">
          <mxGeometry y="104" width="140" height="26" as="geometry" />
        </mxCell>
        <mxCell id="tl-FsIim3-14UyTXCoPh-11" value="cep:string" style="text;strokeColor=none;fillColor=none;align=left;verticalAlign=top;spacingLeft=4;spacingRight=4;overflow=hidden;rotatable=0;points=[[0,0.5],[1,0.5]];portConstraint=eastwest;whiteSpace=wrap;html=1;" vertex="1" parent="tl-FsIim3-14UyTXCoPh-6">
          <mxGeometry y="130" width="140" height="26" as="geometry" />
        </mxCell>
        <mxCell id="tl-FsIim3-14UyTXCoPh-12" value="cidade" style="text;strokeColor=none;fillColor=none;align=left;verticalAlign=top;spacingLeft=4;spacingRight=4;overflow=hidden;rotatable=0;points=[[0,0.5],[1,0.5]];portConstraint=eastwest;whiteSpace=wrap;html=1;" vertex="1" parent="tl-FsIim3-14UyTXCoPh-6">
          <mxGeometry y="156" width="140" height="26" as="geometry" />
        </mxCell>
        <mxCell id="tl-FsIim3-14UyTXCoPh-13" value="Cidade" style="swimlane;fontStyle=0;childLayout=stackLayout;horizontal=1;startSize=26;fillColor=none;horizontalStack=0;resizeParent=1;resizeParentMax=0;resizeLast=0;collapsible=1;marginBottom=0;whiteSpace=wrap;html=1;" vertex="1" parent="1">
          <mxGeometry x="790" y="230" width="140" height="104" as="geometry" />
        </mxCell>
        <mxCell id="tl-FsIim3-14UyTXCoPh-14" value="id" style="text;strokeColor=none;fillColor=none;align=left;verticalAlign=top;spacingLeft=4;spacingRight=4;overflow=hidden;rotatable=0;points=[[0,0.5],[1,0.5]];portConstraint=eastwest;whiteSpace=wrap;html=1;" vertex="1" parent="tl-FsIim3-14UyTXCoPh-13">
          <mxGeometry y="26" width="140" height="26" as="geometry" />
        </mxCell>
        <mxCell id="tl-FsIim3-14UyTXCoPh-15" value="cidade" style="text;strokeColor=none;fillColor=none;align=left;verticalAlign=top;spacingLeft=4;spacingRight=4;overflow=hidden;rotatable=0;points=[[0,0.5],[1,0.5]];portConstraint=eastwest;whiteSpace=wrap;html=1;" vertex="1" parent="tl-FsIim3-14UyTXCoPh-13">
          <mxGeometry y="52" width="140" height="26" as="geometry" />
        </mxCell>
        <mxCell id="tl-FsIim3-14UyTXCoPh-16" value="estadoId" style="text;strokeColor=none;fillColor=none;align=left;verticalAlign=top;spacingLeft=4;spacingRight=4;overflow=hidden;rotatable=0;points=[[0,0.5],[1,0.5]];portConstraint=eastwest;whiteSpace=wrap;html=1;" vertex="1" parent="tl-FsIim3-14UyTXCoPh-13">
          <mxGeometry y="78" width="140" height="26" as="geometry" />
        </mxCell>
        <mxCell id="tl-FsIim3-14UyTXCoPh-17" value="Estado" style="swimlane;fontStyle=0;childLayout=stackLayout;horizontal=1;startSize=26;fillColor=none;horizontalStack=0;resizeParent=1;resizeParentMax=0;resizeLast=0;collapsible=1;marginBottom=0;whiteSpace=wrap;html=1;" vertex="1" parent="1">
          <mxGeometry x="1050" y="230" width="140" height="78" as="geometry" />
        </mxCell>
        <mxCell id="tl-FsIim3-14UyTXCoPh-18" value="id" style="text;strokeColor=none;fillColor=none;align=left;verticalAlign=top;spacingLeft=4;spacingRight=4;overflow=hidden;rotatable=0;points=[[0,0.5],[1,0.5]];portConstraint=eastwest;whiteSpace=wrap;html=1;" vertex="1" parent="tl-FsIim3-14UyTXCoPh-17">
          <mxGeometry y="26" width="140" height="26" as="geometry" />
        </mxCell>
        <mxCell id="tl-FsIim3-14UyTXCoPh-19" value="estado" style="text;strokeColor=none;fillColor=none;align=left;verticalAlign=top;spacingLeft=4;spacingRight=4;overflow=hidden;rotatable=0;points=[[0,0.5],[1,0.5]];portConstraint=eastwest;whiteSpace=wrap;html=1;" vertex="1" parent="tl-FsIim3-14UyTXCoPh-17">
          <mxGeometry y="52" width="140" height="26" as="geometry" />
        </mxCell>
        <mxCell id="tl-FsIim3-14UyTXCoPh-28" value="" style="endArrow=open;startArrow=cross;endFill=0;startFill=0;endSize=8;startSize=10;html=1;rounded=0;exitX=1;exitY=0.5;exitDx=0;exitDy=0;entryX=0;entryY=0.5;entryDx=0;entryDy=0;" edge="1" parent="1" source="tl-FsIim3-14UyTXCoPh-14" target="tl-FsIim3-14UyTXCoPh-18">
          <mxGeometry width="160" relative="1" as="geometry">
            <mxPoint x="940" y="230" as="sourcePoint" />
            <mxPoint x="1040" y="240" as="targetPoint" />
          </mxGeometry>
        </mxCell>
        <mxCell id="tl-FsIim3-14UyTXCoPh-29" value="" style="endArrow=open;startArrow=cross;endFill=0;startFill=0;endSize=8;startSize=10;html=1;rounded=0;entryX=0;entryY=0.5;entryDx=0;entryDy=0;exitX=1.021;exitY=0.115;exitDx=0;exitDy=0;exitPerimeter=0;curved=1;" edge="1" parent="1" source="tl-FsIim3-14UyTXCoPh-11" target="tl-FsIim3-14UyTXCoPh-15">
          <mxGeometry width="160" relative="1" as="geometry">
            <mxPoint x="820" y="330" as="sourcePoint" />
            <mxPoint x="940" y="330" as="targetPoint" />
          </mxGeometry>
        </mxCell>
        <mxCell id="tl-FsIim3-14UyTXCoPh-30" value="" style="endArrow=open;startArrow=cross;endFill=0;startFill=0;endSize=8;startSize=10;html=1;rounded=0;entryX=0.5;entryY=0;entryDx=0;entryDy=0;exitX=0.471;exitY=1.077;exitDx=0;exitDy=0;curved=0;exitPerimeter=0;" edge="1" parent="1" source="tl-FsIim3-14UyTXCoPh-12" target="tl-FsIim3-14UyTXCoPh-1">
          <mxGeometry width="160" relative="1" as="geometry">
            <mxPoint x="440" y="352" as="sourcePoint" />
            <mxPoint x="527" y="320" as="targetPoint" />
            <Array as="points">
              <mxPoint x="626" y="380" />
            </Array>
          </mxGeometry>
        </mxCell>
        <mxCell id="tl-FsIim3-14UyTXCoPh-33" value="Perfil" style="swimlane;fontStyle=0;childLayout=stackLayout;horizontal=1;startSize=26;fillColor=none;horizontalStack=0;resizeParent=1;resizeParentMax=0;resizeLast=0;collapsible=1;marginBottom=0;whiteSpace=wrap;html=1;" vertex="1" parent="1">
          <mxGeometry x="290" y="476" width="140" height="78" as="geometry" />
        </mxCell>
        <mxCell id="tl-FsIim3-14UyTXCoPh-34" value="id" style="text;strokeColor=none;fillColor=none;align=left;verticalAlign=top;spacingLeft=4;spacingRight=4;overflow=hidden;rotatable=0;points=[[0,0.5],[1,0.5]];portConstraint=eastwest;whiteSpace=wrap;html=1;" vertex="1" parent="tl-FsIim3-14UyTXCoPh-33">
          <mxGeometry y="26" width="140" height="26" as="geometry" />
        </mxCell>
        <mxCell id="tl-FsIim3-14UyTXCoPh-35" value="nome" style="text;strokeColor=none;fillColor=none;align=left;verticalAlign=top;spacingLeft=4;spacingRight=4;overflow=hidden;rotatable=0;points=[[0,0.5],[1,0.5]];portConstraint=eastwest;whiteSpace=wrap;html=1;" vertex="1" parent="tl-FsIim3-14UyTXCoPh-33">
          <mxGeometry y="52" width="140" height="26" as="geometry" />
        </mxCell>
        <mxCell id="tl-FsIim3-14UyTXCoPh-37" value="" style="endArrow=open;startArrow=cross;endFill=0;startFill=0;endSize=8;startSize=10;html=1;rounded=0;entryX=-0.03;entryY=-0.148;entryDx=0;entryDy=0;exitX=1.011;exitY=0.133;exitDx=0;exitDy=0;exitPerimeter=0;curved=1;entryPerimeter=0;" edge="1" parent="1" source="tl-FsIim3-14UyTXCoPh-33" target="tl-FsIim3-14UyTXCoPh-3">
          <mxGeometry width="160" relative="1" as="geometry">
            <mxPoint x="430" y="501" as="sourcePoint" />
            <mxPoint x="517" y="503" as="targetPoint" />
          </mxGeometry>
        </mxCell>
        <mxCell id="tl-FsIim3-14UyTXCoPh-38" style="edgeStyle=none;rounded=0;orthogonalLoop=1;jettySize=auto;html=1;exitX=0.25;exitY=0;exitDx=0;exitDy=0;" edge="1" parent="1" source="tl-FsIim3-14UyTXCoPh-1" target="tl-FsIim3-14UyTXCoPh-1">
          <mxGeometry relative="1" as="geometry" />
        </mxCell>
        <mxCell id="tl-FsIim3-14UyTXCoPh-39" value="Permissao" style="swimlane;fontStyle=0;childLayout=stackLayout;horizontal=1;startSize=26;fillColor=none;horizontalStack=0;resizeParent=1;resizeParentMax=0;resizeLast=0;collapsible=1;marginBottom=0;whiteSpace=wrap;html=1;" vertex="1" parent="1">
          <mxGeometry x="290" y="290" width="140" height="104" as="geometry" />
        </mxCell>
        <mxCell id="tl-FsIim3-14UyTXCoPh-40" value="id" style="text;strokeColor=none;fillColor=none;align=left;verticalAlign=top;spacingLeft=4;spacingRight=4;overflow=hidden;rotatable=0;points=[[0,0.5],[1,0.5]];portConstraint=eastwest;whiteSpace=wrap;html=1;" vertex="1" parent="tl-FsIim3-14UyTXCoPh-39">
          <mxGeometry y="26" width="140" height="26" as="geometry" />
        </mxCell>
        <mxCell id="tl-FsIim3-14UyTXCoPh-41" value="+ field: type" style="text;strokeColor=none;fillColor=none;align=left;verticalAlign=top;spacingLeft=4;spacingRight=4;overflow=hidden;rotatable=0;points=[[0,0.5],[1,0.5]];portConstraint=eastwest;whiteSpace=wrap;html=1;" vertex="1" parent="tl-FsIim3-14UyTXCoPh-39">
          <mxGeometry y="52" width="140" height="26" as="geometry" />
        </mxCell>
        <mxCell id="tl-FsIim3-14UyTXCoPh-42" value="+ field: type" style="text;strokeColor=none;fillColor=none;align=left;verticalAlign=top;spacingLeft=4;spacingRight=4;overflow=hidden;rotatable=0;points=[[0,0.5],[1,0.5]];portConstraint=eastwest;whiteSpace=wrap;html=1;" vertex="1" parent="tl-FsIim3-14UyTXCoPh-39">
          <mxGeometry y="78" width="140" height="26" as="geometry" />
        </mxCell>
        <mxCell id="tl-FsIim3-14UyTXCoPh-43" value="" style="endArrow=open;startArrow=cross;endFill=0;startFill=0;endSize=8;startSize=10;html=1;rounded=0;entryX=0.5;entryY=0;entryDx=0;entryDy=0;exitX=0.491;exitY=1.159;exitDx=0;exitDy=0;exitPerimeter=0;curved=1;" edge="1" parent="1" source="tl-FsIim3-14UyTXCoPh-42" target="tl-FsIim3-14UyTXCoPh-33">
          <mxGeometry width="160" relative="1" as="geometry">
            <mxPoint x="310" y="440" as="sourcePoint" />
            <mxPoint x="397" y="442" as="targetPoint" />
          </mxGeometry>
        </mxCell>
      </root>
    </mxGraphModel>
  </diagram>
</mxfile>
